<svg width="25" height="16" viewBox="0 0 25 16" fill="none" xmlns="http://www.w3.org/2000/svg">
<path fill-rule="evenodd" clip-rule="evenodd" d="M11.6647 1.66352C12.1164 2.32863 12.3437 3.12078 12.3437 4.04596C12.3437 4.99804 12.1164 5.76478 11.659 6.34321C11.4005 6.66754 11.0241 6.96497 10.5255 7.23251C11.2826 7.52396 11.8522 7.98281 12.24 8.61056C12.6249 9.23681 12.8167 10.0006 12.8167 10.8973C12.8167 11.821 12.5979 12.652 12.1562 13.3844C11.8763 13.8702 11.5255 14.2812 11.1065 14.613C10.6335 14.9941 10.0767 15.2542 9.43178 15.3962C8.78691 15.5382 8.08948 15.6069 7.33523 15.6069H0.6521V0H7.8196C9.62922 0.0298926 10.909 0.582905 11.6647 1.66352ZM3.60944 2.71126V6.15488H7.21591C7.85795 6.15488 8.38209 6.02485 8.78549 5.76628C9.18463 5.5092 9.38775 5.05184 9.38775 4.3972C9.38775 3.66931 9.12213 3.18954 8.59089 2.95488C8.13209 2.79346 7.54829 2.71126 6.83808 2.71126H3.60944ZM3.60944 8.7361V12.8972H7.21023C7.85368 12.8972 8.3551 12.806 8.71305 12.6236C9.3636 12.2829 9.68746 11.6342 9.68746 10.6761C9.68746 9.86156 9.37497 9.30556 8.7443 9.00065C8.39061 8.83176 7.8963 8.74208 7.26137 8.7361H3.60944ZM21.7839 4.30154C22.5509 4.66175 23.1816 5.2312 23.6773 6.00841C24.1304 6.69444 24.4216 7.48958 24.5537 8.39383C24.6304 8.92443 24.6631 9.68818 24.6489 10.6851H16.6589C16.7058 11.8434 17.0851 12.655 17.8066 13.1199C18.2456 13.4098 18.7725 13.5533 19.389 13.5533C20.0396 13.5533 20.5722 13.3784 20.9799 13.0257C21.2043 12.8344 21.4003 12.5698 21.5708 12.2305H24.4983C24.4216 12.9151 24.0665 13.6101 23.4358 14.3185C22.4543 15.4395 21.0779 16 19.3109 16C17.8507 16 16.5609 15.5277 15.4487 14.5801C14.3294 13.634 13.774 12.093 13.774 9.9617C13.774 7.96039 14.2769 6.4284 15.2825 5.35974C16.291 4.29556 17.5978 3.76049 19.2044 3.76049C20.1589 3.76049 21.0197 3.93984 21.7839 4.30154ZM17.4942 6.90818C17.0893 7.3476 16.8337 7.94395 16.73 8.69426H21.6716C21.6205 7.89313 21.3634 7.28632 20.9089 6.87081C20.4486 6.4568 19.8819 6.24904 19.2058 6.24904C18.4714 6.24904 17.899 6.46875 17.4942 6.90818ZM15.9885 2.6709H22.3435V0.729379H15.9885V2.6709Z"/>
</svg>
