<svg width="17" height="16" viewBox="0 0 17 16" fill="none" xmlns="http://www.w3.org/2000/svg">
<path fill-rule="evenodd" clip-rule="evenodd" d="M8.65208 1.44147C10.7882 1.44147 11.0412 1.4496 11.8848 1.48809C12.6647 1.52369 13.0883 1.65401 13.3703 1.76354C13.7437 1.90867 14.0102 2.08205 14.2901 2.36198C14.57 2.64191 14.7434 2.90844 14.8885 3.28183C14.9981 3.56376 15.1284 3.98735 15.164 4.76731C15.2025 5.61091 15.2106 5.86391 15.2106 8.00002C15.2106 10.1361 15.2025 10.3891 15.164 11.2327C15.1284 12.0127 14.9981 12.4363 14.8885 12.7182C14.7434 13.0916 14.57 13.3581 14.2901 13.638C14.0102 13.918 13.7437 14.0914 13.3703 14.2365C13.0883 14.346 12.6647 14.4763 11.8848 14.5119C11.0413 14.5504 10.7883 14.5586 8.65208 14.5586C6.51585 14.5586 6.26285 14.5504 5.41941 14.5119C4.63942 14.4763 4.21583 14.346 3.93393 14.2365C3.56051 14.0914 3.29398 13.918 3.01405 13.638C2.73412 13.3581 2.56073 13.0916 2.41564 12.7182C2.30608 12.4363 2.17575 12.0127 2.14016 11.2327C2.10167 10.3891 2.09354 10.1361 2.09354 8.00002C2.09354 5.86391 2.10167 5.61091 2.14016 4.76735C2.17575 3.98735 2.30608 3.56376 2.41564 3.28183C2.56073 2.90844 2.73412 2.64191 3.01405 2.36198C3.29398 2.08205 3.56051 1.90867 3.93393 1.76354C4.21583 1.65401 4.63942 1.52369 5.41938 1.48809C6.26298 1.4496 6.51598 1.44147 8.65208 1.44147ZM8.65208 0C6.4794 0 6.207 0.00920923 5.35371 0.0481422C4.50217 0.0870116 3.92065 0.222229 3.41176 0.420006C2.88569 0.624451 2.43955 0.897997 1.99481 1.34274C1.55007 1.78748 1.27652 2.23363 1.07207 2.7597C0.874297 3.26859 0.739079 3.8501 0.70021 4.70164C0.661277 5.5549 0.6521 5.82733 0.6521 8.00002C0.6521 10.1727 0.661277 10.4451 0.70021 11.2984C0.739079 12.1499 0.874297 12.7314 1.07207 13.2403C1.27652 13.7664 1.55007 14.2125 1.99481 14.6573C2.43955 15.102 2.88569 15.3756 3.41176 15.58C3.92065 15.7778 4.50217 15.913 5.35371 15.9519C6.207 15.9908 6.4794 16 8.65208 16C10.8248 16 11.0972 15.9908 11.9505 15.9519C12.802 15.913 13.3835 15.7778 13.8924 15.58C14.4185 15.3756 14.8646 15.102 15.3094 14.6573C15.7541 14.2125 16.0276 13.7664 16.2321 13.2403C16.4299 12.7314 16.5651 12.1499 16.604 11.2984C16.6429 10.4451 16.6521 10.1727 16.6521 8.00002C16.6521 5.82733 16.6429 5.5549 16.604 4.70164C16.5651 3.8501 16.4299 3.26859 16.2321 2.7597C16.0276 2.23363 15.7541 1.78748 15.3094 1.34274C14.8646 0.897997 14.4185 0.624451 13.8924 0.420006C13.3835 0.222229 12.802 0.0870116 11.9505 0.0481422C11.0972 0.00920923 10.8248 0 8.65208 0ZM8.66797 3.90476C6.39748 3.90476 4.55686 5.74538 4.55686 8.01587C4.55686 10.2864 6.39748 12.127 8.66797 12.127C10.9385 12.127 12.7791 10.2864 12.7791 8.01587C12.7791 5.74538 10.9385 3.90476 8.66797 3.90476ZM8.66797 10.6845C7.19415 10.6845 5.99935 9.4897 5.99935 8.01587C5.99935 6.54205 7.19415 5.34725 8.66797 5.34725C10.1418 5.34725 11.3366 6.54205 11.3366 8.01587C11.3366 9.4897 10.1418 10.6845 8.66797 10.6845ZM13.8584 3.71427C13.8584 4.24026 13.4321 4.66667 12.9061 4.66667C12.3801 4.66667 11.9537 4.24026 11.9537 3.71427C11.9537 3.18828 12.3801 2.7619 12.9061 2.7619C13.4321 2.7619 13.8584 3.18828 13.8584 3.71427Z"/>
</svg>
