<svg width="17" height="16" viewBox="0 0 17 16" fill="none" xmlns="http://www.w3.org/2000/svg">
<path fill-rule="evenodd" clip-rule="evenodd" d="M1.05567 5.13049H4.17421V15.999H1.05567V5.13049ZM2.53545 3.77103H2.51287C1.38399 3.77103 0.6521 2.9402 0.6521 1.88808C0.6521 0.814445 1.40563 0 2.55709 0C3.7076 0 4.41504 0.812396 4.43761 1.885C4.43761 2.93712 3.7076 3.77103 2.53545 3.77103ZM16.6521 16H13.1159V10.3747C13.1159 8.90255 12.5627 7.89858 11.3464 7.89858C10.416 7.89858 9.89857 8.57575 9.65774 9.23038C9.56743 9.46395 9.58154 9.79075 9.58154 10.1186V16H6.07825C6.07825 16 6.12341 6.03611 6.07825 5.13049H9.58154V6.83622C9.78851 6.09041 10.908 5.026 12.6944 5.026C14.9108 5.026 16.6521 6.59034 16.6521 9.95569V16Z"/>
</svg>
