<svg xmlns="http://www.w3.org/2000/svg" xmlns:xlink="http://www.w3.org/1999/xlink"><symbol id="arrow-down-mobile" viewBox="0 0 8 47"><path d="M3.646 46.354a.5.5 0 00.708 0l3.182-3.182a.5.5 0 10-.708-.707L4 45.293l-2.828-2.828a.5.5 0 10-.708.707l3.182 3.182zM3.5 0v46h1V0h-1z" fill="#fff"/></symbol><symbol id="arrow-down" viewBox="0 0 24 73"><path d="M10.94 72.06a1.5 1.5 0 002.12 0l9.547-9.545a1.5 1.5 0 10-2.122-2.122L12 68.88l-8.485-8.486a1.5 1.5 0 10-2.122 2.122l9.546 9.546zM10.5 0v71h3V0h-3z" fill="#fff"/></symbol><symbol id="behance" viewBox="0 0 25 16"><path clip-rule="evenodd" d="M11.665 1.664c.451.665.679 1.457.679 2.382 0 .952-.228 1.719-.685 2.297-.259.325-.635.622-1.134.89.758.291 1.327.75 1.715 1.378.385.626.577 1.39.577 2.286 0 .924-.22 1.755-.66 2.487-.28.486-.632.897-1.05 1.229a3.99 3.99 0 01-1.675.783 9.74 9.74 0 01-2.097.21H.652V0H7.82c1.81.03 3.089.583 3.845 1.664zM3.609 2.71v3.444h3.607c.642 0 1.166-.13 1.57-.389.399-.257.602-.714.602-1.369 0-.728-.266-1.207-.797-1.442-.459-.162-1.043-.244-1.753-.244H3.61zm0 6.025v4.161H7.21c.644 0 1.145-.091 1.503-.273.65-.341.974-.99.974-1.948 0-.814-.312-1.37-.943-1.675-.353-.17-.848-.259-1.483-.265H3.61zm18.175-4.434c.767.36 1.398.93 1.893 1.706.453.686.745 1.482.877 2.386.076.53.11 1.294.095 2.291h-7.99c.047 1.158.426 1.97 1.148 2.435.439.29.966.433 1.582.433.65 0 1.183-.175 1.59-.527.225-.192.421-.456.592-.796h2.927c-.076.685-.431 1.38-1.062 2.088C22.454 15.44 21.078 16 19.31 16c-1.46 0-2.75-.472-3.862-1.42-1.12-.946-1.675-2.487-1.675-4.618 0-2.002.503-3.534 1.509-4.602 1.008-1.064 2.315-1.6 3.921-1.6.955 0 1.816.18 2.58.542zm-4.29 2.606c-.405.44-.66 1.036-.764 1.786h4.942c-.052-.8-.309-1.408-.763-1.823-.46-.414-1.027-.622-1.703-.622-.735 0-1.307.22-1.712.66zM15.99 2.671h6.354V.729H15.99v1.942z"/></symbol><symbol id="close" viewBox="0 0 15 15"><path d="M14.2.354L.354 14.2m14.139 0L.646.354"/></symbol><symbol id="facebook" viewBox="0 0 8 16"><path clip-rule="evenodd" d="M5.088 16H1.695V7.999H0V5.242h1.695V3.587C1.695 1.338 2.652 0 5.373 0h2.264v2.758H6.222c-1.06 0-1.13.385-1.13 1.104l-.004 1.38h2.564L7.352 8H5.088v8z"/></symbol><symbol id="instagram" viewBox="0 0 17 16"><path clip-rule="evenodd" d="M8.652 1.441c2.136 0 2.39.009 3.233.047.78.036 1.203.166 1.485.276.374.145.64.318.92.598.28.28.453.546.599.92.11.282.24.705.275 1.485.039.844.047 1.097.047 3.233s-.008 2.39-.047 3.233c-.036.78-.166 1.203-.275 1.485-.146.374-.319.64-.599.92-.28.28-.546.453-.92.598-.282.11-.705.24-1.485.276-.844.038-1.097.047-3.233.047s-2.39-.009-3.233-.047c-.78-.036-1.203-.166-1.485-.276a2.478 2.478 0 01-.92-.598 2.478 2.478 0 01-.598-.92c-.11-.282-.24-.705-.276-1.485-.038-.844-.046-1.097-.046-3.233s.008-2.39.046-3.233c.036-.78.166-1.203.276-1.485.145-.374.318-.64.598-.92.28-.28.547-.453.92-.598.282-.11.705-.24 1.485-.276.844-.038 1.097-.047 3.233-.047zm0-1.441C6.48 0 6.207.01 5.354.048 4.502.087 3.92.222 3.412.42a3.921 3.921 0 00-1.417.923c-.445.444-.718.89-.923 1.417C.874 3.269.74 3.85.7 4.702.661 5.555.652 5.827.652 8s.01 2.445.048 3.298c.04.852.174 1.433.372 1.942.205.526.478.973.923 1.417.445.445.89.719 1.417.923.509.198 1.09.333 1.942.372.853.039 1.125.048 3.298.048s2.445-.01 3.299-.048c.851-.039 1.432-.174 1.941-.372a3.922 3.922 0 001.417-.923 3.9 3.9 0 00.923-1.417c.198-.509.333-1.09.372-1.942.039-.853.048-1.125.048-3.298s-.01-2.445-.048-3.298c-.039-.852-.174-1.433-.372-1.942a3.923 3.923 0 00-.923-1.417A3.922 3.922 0 0013.892.42c-.508-.198-1.09-.333-1.941-.372C11.097.01 10.825 0 8.652 0zm.016 3.905a4.111 4.111 0 100 8.222 4.111 4.111 0 000-8.222zm0 6.78a2.669 2.669 0 110-5.338 2.669 2.669 0 010 5.337zm5.19-6.97a.952.952 0 11-1.904 0 .952.952 0 011.904 0z"/></symbol><symbol id="linkedin" viewBox="0 0 17 16"><path clip-rule="evenodd" d="M1.056 5.13h3.118V16H1.056V5.13zm1.48-1.359h-.023c-1.129 0-1.86-.83-1.86-1.883C.652.814 1.405 0 2.556 0c1.15 0 1.858.812 1.88 1.885 0 1.052-.73 1.886-1.902 1.886zM16.651 16h-3.536v-5.625c0-1.472-.553-2.476-1.77-2.476-.93 0-1.447.677-1.688 1.331-.09.234-.076.56-.076.889V16H6.078s.045-9.964 0-10.87h3.504v1.706c.207-.746 1.326-1.81 3.112-1.81 2.217 0 3.958 1.564 3.958 4.93V16z"/></symbol></svg>